<svg xmlns="http://www.w3.org/2000/svg" xmlns:xlink="http://www.w3.org/1999/xlink" width="185" height="185" viewBox="0 0 185 185">
  <defs>
    <clipPath id="clip-path">
      <rect id="Rectangle_17" data-name="Rectangle 17" width="185" height="185" transform="translate(-0.342 -0.234)" fill="#ddd" stroke="#707070" stroke-width="1"/>
    </clipPath>
  </defs>
  <g id="github-brands" transform="translate(0.342 0.234)" clip-path="url(#clip-path)">
    <path id="github-square-brands" d="M164.874,15.857H19.785A19.79,19.79,0,0,0,0,35.642V180.731a19.79,19.79,0,0,0,19.785,19.785H164.874a19.79,19.79,0,0,0,19.785-19.785V35.642A19.79,19.79,0,0,0,164.874,15.857ZM114.3,174.012c-3.462.618-4.74-1.525-4.74-3.3,0-2.226.082-13.6.082-22.794,0-6.43-2.143-10.511-4.658-12.654,15.251-1.69,31.326-3.792,31.326-30.131,0-7.5-2.679-11.253-7.048-16.075.7-1.772,3.05-9.068-.7-18.548-5.729-1.772-18.837,7.378-18.837,7.378a64.843,64.843,0,0,0-34.294,0s-13.107-9.15-18.837-7.378c-3.751,9.439-1.443,16.735-.7,18.548-4.369,4.823-6.43,8.573-6.43,16.075,0,26.215,15.374,28.441,30.625,30.131-1.978,1.772-3.751,4.823-4.369,9.192-3.916,1.772-13.932,4.823-19.908-5.729A14.36,14.36,0,0,0,45.3,131.681c-6.677-.082-.453,4.2-.453,4.2,4.452,2.061,7.584,9.975,7.584,9.975,4,12.242,23.124,8.12,23.124,8.12,0,5.729.082,15.045.082,16.735,0,1.772-1.237,3.916-4.74,3.3-27.2-9.109-46.247-34.994-46.247-65.249,0-37.838,28.935-66.568,66.774-66.568s68.5,28.729,68.5,66.568C159.969,139.018,141.5,164.944,114.3,174.012ZM73.863,148.828c-.783.165-1.525-.165-1.608-.7-.082-.618.453-1.154,1.237-1.319.783-.082,1.525.247,1.608.783C75.224,148.127,74.688,148.663,73.863,148.828Zm-3.916-.371c0,.536-.618.989-1.443.989-.907.082-1.525-.371-1.525-.989,0-.536.618-.989,1.443-.989C69.206,147.385,69.948,147.838,69.948,148.457ZM64.3,148c-.165.536-.989.783-1.69.536-.783-.165-1.319-.783-1.154-1.319s.989-.783,1.69-.618c.824.247,1.36.866,1.154,1.4Zm-5.07-2.226c-.371.453-1.154.371-1.772-.247-.618-.536-.783-1.319-.371-1.69.371-.453,1.154-.371,1.772.247C59.4,144.623,59.6,145.448,59.231,145.778Zm-3.751-3.751c-.371.247-1.072,0-1.525-.618s-.453-1.319,0-1.608c.453-.371,1.154-.082,1.525.536A1.207,1.207,0,0,1,55.48,142.027Zm-2.679-4c-.371.371-.989.165-1.443-.247-.453-.536-.536-1.154-.165-1.443.371-.371.989-.165,1.443.247C53.089,137.122,53.172,137.74,52.8,138.028Zm-2.762-3.05a.777.777,0,0,1-1.154.165c-.536-.247-.783-.7-.618-1.072a.97.97,0,0,1,1.154-.165C49.957,134.2,50.2,134.649,50.039,134.978Z" transform="translate(0 -15.857)" fill="#ddd"/>
  </g>
</svg>
