<svg xmlns="http://www.w3.org/2000/svg" viewBox="0 0 251.82 274.63"><defs><style>.cls-1{fill:#ddd;}</style></defs><g id="Calque_2" data-name="Calque 2"><g id="Calque_1-2" data-name="Calque 1"><path class="cls-1" d="M8,264.71H8Zm0,0H8Zm0,0H8Zm0,0H8Zm-8-.46H0l.62.2Zm39.66,10.09,1.45.29h0ZM8,264.71H8Zm0,0H8Zm0,0H8Zm0,0H8Zm0,0H8Z"/><path class="cls-1" d="M65,216.49v58.14H52.5q-4.87-.81-9.59-1.7l-3.4-.65-2.42-.48-3.19-.66-.26-.05q-2.54-.54-5-1.09c-2.45-.55-4.85-1.11-7.18-1.68l-1.66-.41-2.74-.69c-1.77-.47-3.5-.93-5.18-1.4l-2.39-.68L8,264.71H8l-.79-.24-.6-.18L6,264.1l-2.14-.67L2.55,263l-1.28-.43h0c-.43-.14-.85-.28-1.26-.43V200c.75.41,1.6.83,2.55,1.25l.58.26c.42.19.86.37,1.32.56l1.09.43.13,0,.56.22.06,0,.51.19,1.76.63.5.18c1.12.39,2.31.78,3.56,1.17l.87.27c1,.31,2,.62,3,.92l1.56.45.29.08,1.56.44,1.34.36,1.83.49q2.09.54,4.29,1.08l2.23.54,2.28.54,2.33.53,2.37.53,2.42.52,3.13.66,1.82.36c2.51.51,5.08,1,7.69,1.48l2.62.47,1.28.23L56,215l1,.17.19,0c1,.16,1.9.33,2.86.48l2.89.47Z"/><path class="cls-1" d="M251.82,0V61.18l-.47-.19-.47-.19-.36-.14-1.14-.43c-1-.35-2.11-.72-3.32-1.09l-.13,0-.61-.18-.52-.16-.25-.07-.78-.23-.45-.13-.36-.1-.41-.12-.85-.23-1.31-.35-.27-.07-1.23-.32L238.4,57l-.77-.19a.35.35,0,0,1-.11,0l-.91-.22-1.86-.45-.19,0-.9-.22-.12,0-.92-.21-1.06-.24c-.71-.17-1.44-.33-2.18-.49-2.27-.5-4.65-1-7.12-1.5L220.19,53l-1.39-.27-1.75-.34L215.27,52l-1.22-.23-1.2-.22-4.4-.79q-5.37-.95-11-1.84l-.72-.11-4.5-.7-.48-.07-2.25-.33-2.68-.39V0Z"/><path class="cls-1" d="M251.82,248.76v25.87H200.73l1.94-.56c1.29-.39,2.56-.78,3.82-1.18l.4-.13,1.09-.36q.54-.16,1.08-.36c.9-.3,1.79-.61,2.67-.92l.32-.11,2.31-.85,2.36-.91,2.44-1,.31-.13c.67-.27,1.34-.55,2-.84s1.32-.57,2-.87c.84-.38,1.67-.76,2.49-1.15l.4-.19c1-.45,1.9-.92,2.82-1.39h0c.92-.47,1.83-.94,2.73-1.43s1.8-1,2.69-1.48l1.47-.85,1-.57,1.34-.81c1.11-.69,2.21-1.39,3.28-2.1l.23-.15,1.12-.77c.78-.54,1.55-1.08,2.31-1.63.47-.34.94-.68,1.4-1,.22-.15.43-.32.64-.48s.46-.34.68-.52c.43-.33.86-.67,1.28-1l.6-.48C250.55,249.84,251.19,249.3,251.82,248.76Z"/><path class="cls-1" d="M0,264.25H0l.62.2Zm39.66,10.09,1.45.29h0Z"/><path class="cls-1" d="M41.11,274.63H0V264.26l1.27.42,1.34.44,1.38.44.26.08c.73.24,1.48.47,2.24.69l1.8.54.51.15,2.38.68,1.66.46.78.21L16,269l2.69.69,2.26.56,1.36.33,4.43,1,1.08.24,4.54,1,2.88.6,2.93.59,1.48.29Z"/><path class="cls-1" d="M65,151.28v63.18h0c-1.08-.16-2.15-.34-3.22-.51l-2.24-.38q-2.73-.45-5.41-.94h0l-2.53-.46-2.17-.41-2.71-.52-2.45-.49-3.18-.65-2.5-.53-2-.44q-3-.66-5.84-1.33l-2.83-.68-2-.5c-2.41-.61-4.72-1.23-6.9-1.84-1.29-.37-2.54-.73-3.74-1.09l-.8-.24-.35-.11-.44-.14c-.47-.14-.93-.28-1.37-.43l-.54-.17-1.19-.4-1.63-.56-.24-.09h0c-.25-.08-.5-.17-.74-.27l-2-.75-.68-.27-.88-.37-1-.43c-1-.46-1.91-.9-2.67-1.33L0,197.71V122.15l.25.18c.63.48,1.27.94,1.91,1.41s1,.73,1.56,1.09l.41.28c.49.34,1,.68,1.5,1l.48.32c2.1,1.37,4.27,2.69,6.49,4,.55.32,1.11.64,1.68.94l1.38.76.16.08q1,.52,1.92,1t2.1,1.08c.47.23.93.47,1.4.69.94.47,1.89.92,2.85,1.37l2.13,1,1.44.65.71.31q2.14.94,4.3,1.84c1.07.45,2.15.89,3.22,1.31l1.08.42c.71.29,1.42.56,2.13.83l2.13.8.87.32,1.68.62,1.67.59,1.69.59.4.14,1.28.43c1.12.39,2.22.76,3.32,1.12l1.84.59c.56.19,1.12.36,1.68.54l.38.12,2,.63c1.12.36,2.23.69,3.32,1Z"/><path class="cls-1" d="M0,18.57H0L1.21,17.5C.8,17.85.4,18.21,0,18.57Z"/><path class="cls-1" d="M24.2,0c-1.15.57-2.29,1.15-3.4,1.75-.56.29-1.11.59-1.66.9C18,3.27,16.89,3.91,15.8,4.56c-.65.38-1.29.77-1.93,1.17h0l-.79.49-.82.52L12,6.92Q8.08,9.44,4.51,12.19c-.47.37-.93.73-1.38,1.1s-1.1.89-1.64,1.34h0l-.21.18-.46.39-.48.41L0,15.9H0V0Z"/><path class="cls-1" d="M251.82,63.37V137q-2.76-2.07-5.82-4c-1-.63-2-1.26-3.06-1.88-.47-.28-.94-.56-1.42-.83l-1.85-1-1.69-.91-2-1.05-.62-.31-.37-.18c-.76-.39-1.54-.77-2.33-1.14l-1.86-.87-1.9-.86-1.68-.74-1.58-.67-.67-.28-1.18-.48-1.07-.43c-.35-.15-.71-.29-1.08-.43-.57-.23-1.15-.45-1.74-.67l-1.36-.52-2-.72-.8-.29-1.41-.5c-.75-.26-1.5-.53-2.26-.78l-1.81-.61-1.84-.6c-.66-.21-1.32-.43-2-.63-1.15-.37-2.32-.73-3.5-1.08q-3-.92-6.21-1.8l-2.19-.61c-2.51-.69-5.1-1.36-7.76-2V49.36l3.16.46,3.94.59.35.05,3.54.56q2.7.42,5.34.87c1.65.27,3.27.55,4.88.84l.32.06,1.59.28.89.16.78.14,1.47.27.75.14,1.41.26c1.83.35,3.62.69,5.37,1l.92.18,1.59.33,2,.42,2.56.54,2.17.48c1.15.26,2.27.51,3.36.77l1.78.42,1,.24,1,.23c.94.23,1.85.47,2.73.7l.86.23c2.29.61,4.34,1.21,6.13,1.79l.43.14.77.26.58.2,1.23.45c.52.2,1,.39,1.43.58Z"/><path class="cls-1" d="M0,18.57H0L1.21,17.5C.8,17.85.4,18.21,0,18.57Z"/><path class="cls-1" d="M10.65,126.93h0Zm0,0h0Zm0,0h0Zm0,0h0Zm0,0h0Z"/><path class="cls-1" d="M251.82,139.52V246.1c-.45.41-.91.8-1.37,1.2l-1.61,1.34c-.54.45-1.08.89-1.63,1.32-.35.28-.72.56-1.08.83s-.8.61-1.2.9l-1.43,1-.11.08c-.52.37-1,.74-1.57,1.1-1.06.73-2.14,1.44-3.23,2.13-.45.29-.9.58-1.36.85-.66.41-1.32.81-2,1.2q-.75.45-1.5.87-1,.57-2,1.11c-.59.32-1.18.64-1.78.95l-.2.11-1.62.83c-.56.29-1.12.57-1.69.84l-.15.07-1.86.89-1.92.88-1.93.85c-1.26.55-2.55,1.08-3.85,1.6l-2.13.83-2.12.79c-1.36.5-2.74,1-4.13,1.45-1.23.41-2.48.82-3.74,1.21l-2.24.69-1.58.46h0l-1.94.55c-2,.55-4,1.06-6,1.56h-6.1V191.26C185,179.7,174,173.06,147.56,167.57L89.87,156c-6.8-1.75-14.79-3.84-22.85-6.18l-.72-.21q-3.63-1-7.62-2.29l-4-1.25-.09,0-2.06-.67-2.1-.7q-3.09-1-6.29-2.19c-2.26-.82-4.55-1.68-6.85-2.59l-1.93-.77-2.17-.89h0q-1.1-.45-2.19-.93h0l-2.19-1-1.09-.48-1.38-.63c-2.1-1-4.19-2-6.25-3h0l-1.33-.69-.54-.28Q16,130,13.74,128.75l-2.06-1.2-1-.62h0l-1-.62c-.68-.42-1.35-.84-2-1.27h0l-.75-.49-1.21-.82h0c-.65-.43-1.29-.88-1.92-1.33h0l-.08-.06q-.68-.47-1.32-1l-.43-.31-.07,0c-.61-.46-1.22-.92-1.82-1.4v-101L1.21,17.5c.51-.46,1-.9,1.56-1.34s1.08-.89,1.62-1.32,1.1-.88,1.66-1.3,1.12-.86,1.69-1.27S8.9,11.43,9.48,11s1.18-.83,1.78-1.23A118.51,118.51,0,0,1,22.7,3l.07,0q3-1.55,6.07-3H65V71.05c2,15,28,20.28,48.87,24.5,3.3.67,6.42,1.3,9.27,1.93l52.84,12c3,.67,5.92,1.37,8.79,2.08l.76.19,2.87.73c1.87.47,3.7,1,5.5,1.45q3,.83,5.9,1.66l2.13.63,2.36.72,2.64.83,2.43.79,2.11.71c.91.3,1.81.62,2.69.93l2.2.79,2,.73h0l2.16.83h0l2.11.84c2.09.85,4.12,1.71,6.07,2.59h0l1.39.63.34.16,2.08,1,1.2.58.53.26c2.46,1.24,4.81,2.51,7,3.81l1.63,1,1.12.69c.68.43,1.35.86,2,1.29h0l.75.5c.25.16.49.34.74.51h0c.49.33,1,.67,1.45,1h0c.32.23.64.45.95.69l.85.63Z"/></g></g></svg>