<svg xmlns="http://www.w3.org/2000/svg" viewBox="0 0 13.47 13.47"><g id="Calque_2" data-name="Calque 2"><g id="Calque_1-2" data-name="Calque 1"><path d="M12.61,0H.86A.81.81,0,0,0,0,.62L0,.68v12.1a.89.89,0,0,0,.47.6l.21.09H12.79a.87.87,0,0,0,.56-.41,1.21,1.21,0,0,0,.12-.46c0-3.91,0-7.83,0-11.74A.82.82,0,0,0,12.61,0Zm-4,10.3H7.06S7,10.23,7,10.19c-.15-.51-.31-1-.45-1.52,0-.1-.07-.13-.17-.13-.57,0-1.14,0-1.7,0H4.5c-.12.45-.25.9-.37,1.34,0,.11-.06.23-.1.34s-.06.08-.09.08H2.45l0,0C3.11,8,3.8,5.73,4.5,3.45H6.42a.13.13,0,0,1,.15.1q1,3.35,2.08,6.71ZM11,10.15c0,.13,0,.16-.15.15H9.48v-5H11Zm-.79-5.44a.75.75,0,0,1-.8-.77.76.76,0,0,1,.82-.78.78.78,0,0,1,.81.8A.76.76,0,0,1,10.23,4.71Z"/><path d="M6.23,7.38H4.74c.24-.93.48-1.84.72-2.75C5.71,5.54,6,6.45,6.23,7.38Z"/></g></g></svg>