<?xml version="1.0" encoding="utf-8"?>
<!-- Generator: Adobe Illustrator 25.4.1, SVG Export Plug-In . SVG Version: 6.00 Build 0)  -->
<svg version="1.1" xmlns="http://www.w3.org/2000/svg" xmlns:xlink="http://www.w3.org/1999/xlink" x="0px" y="0px"
	 viewBox="0 0 2199 2500" style="enable-background:new 0 0 2199 2500;" xml:space="preserve">
<style type="text/css">
	.st0{fill:#00057F;}
	.st1{fill:#A3A29F;}
	.st2{opacity:0.986;fill:#EBEBEB;fill-opacity:0;enable-background:new    ;}
	.st3{opacity:0.986;fill:#EBEBEB;fill-opacity:0.9216;enable-background:new    ;}
	.st4{fill:#DDDDDD;}
	.st5{fill:#FC490B;}
</style>
<g id="svg4525">
	<polygon class="st0" points="3952.5,200.3 3959.4,2319.9 3952.5,2321.7 	"/>
	<polygon class="st0" points="4852.9,200.3 4853,200.3 4682.4,2124.8 3959.4,2322.9 3959.4,2319.9 4682.4,2123.6 	"/>
	<polygon class="st0" points="4852.9,200.3 3952.5,200.3 3952.5,199.1 4853,199.1 	"/>
	<path id="path5113" class="st1" d="M204,2247.4L-0.1,0.4l2199,0.9l-202.4,2244.4l-898.8,253.9L204,2247.4z M1831,2124.8
		l170.7-1924.5h-900.5l6.9,2122.6L1831,2124.8z M1017.1,482.4H798.4l-2.6,1151.8l-424.5-115.8l0.9,263.3l644.9,174.1L1017.1,482.4
		L1017.1,482.4z"/>
	<path id="path5159" class="st2" d="M945,1934.1c-28.3-8.6-168.1-46.3-310.5-84.9l-258.1-69.5v-129.5c0-126.9,0-129.5,12.9-125.2
		c6.9,2.6,101.2,28.3,209.3,58.3l196.4,54l1.7-574.6l1.7-574.6h214.4v730.7c0,580.6-1.7,730.7-7.7,730.7
		C1000.8,1948.7,973.3,1941.8,945,1934.1L945,1934.1z"/>
	<path id="path5157" class="st3" d="M372.1,1781.4l-0.9-263.3c0,0,271,76.3,424.5,115.8L798.4,483h218.7v1472.6L372.1,1781.4
		L372.1,1781.4z"/>
	<path id="path5117" class="st4" d="M1101.1,199.1h900.5L1831,2123.6l-729.8,198.1V199.1z M1784.6,1801.2l59.2-719.6l-437.4,48.9
		V746.3l466.6-1.7l18.9-262.4l-704.1,3.4l9.4,955.4l425.4-72.9l-6,212.7l-428.8,114.1l4.3,260.7L1784.6,1801.2L1784.6,1801.2z"/>
	<path id="path5113_00000123419441090298227510000006949481710982538930_" class="st1" d="M3952.5,200.3v2121.5l6.9-1.9
		L3952.5,200.3z M3952.5,199.1v1.2h900.4l0.1-1.2H3952.5z"/>
	<path class="st1" d="M2851.3,0.4l204.1,2247l893.7,252.1l898.8-253.9L5050.3,1.3L2851.3,0.4z M4682.4,2124.8l-723,198.1l0-3
		l-6.9,1.9V199.1H4853l-0.1,1.2h0.1L4682.4,2124.8z"/>
	<path id="path5117_00000124855941019242946230000003123681728936555143_" class="st4" d="M4853,199.1h-900.5v1.2h900.4L4853,199.1z
		 M3959.4,2319.9l-6.9-2119.6v2121.5L3959.4,2319.9z"/>
	<polygon class="st4" points="4852.9,200.3 4682.4,2123.6 3959.4,2319.9 3952.5,200.3 	"/>
	<path class="st1" d="M2851.3,3219.5l204.1,2247l893.7,252.1l898.8-253.9l202.4-2244.4L2851.3,3219.5z M4682.4,5343.9l-723,198.1
		l0-3l-6.9,1.9V3418.2H4853l-0.1,1.2h0.1L4682.4,5343.9z"/>
	<polygon class="st4" points="4852.9,3419.3 4682.4,5342.7 3959.4,5538.9 3952.5,3419.3 	"/>
</g>
<g id="Capa_1">
	<path d="M4641.4,3742.9l-25.9,228.5c0,0.3-0.3,0.6-0.6,0.6c-0.3,0.1-0.6-0.1-0.8-0.4L4040,4206.8c-8.2,3.3-12.8,12-11.1,20.7
		c1.7,8.7,9.3,14.9,18.2,14.9h446.5c23.8,0,46.4,10.1,62.3,27.8c15.9,17.7,23.5,41.2,21,64.9l-69.8,654.5
		c-3.4,32.1-25,59.4-55.5,70.1l-474,166.8c-17.9,6.3-37.3,6.3-55.2,0.1l-471.8-163.4c-30.7-10.6-52.4-38-55.9-70.2l-31.6-296.4
		c-1.7-15.6,3.4-31.1,13.8-42.7c10.5-11.6,25.4-18.3,41-18.3h131.3c28.2,0,51.9,21.3,54.9,49.3l19.4,182.2l326.6,113.5l328.1-114.6
		l40.1-377.9h-927.8c-28.1,0-51.8-21.2-54.8-49.1l-17.7-160.1c-2.7-24.4,11.1-47.7,33.8-57.1l593.8-244.8c6.7-2.8,10.6-9.9,9.1-17.1
		c-1.4-7.1-7.7-12.3-14.9-12.3h-625.2c-18.8,0-34.6-14.2-36.6-32.9l-18.1-172.1c-1.1-10.4,2.3-20.7,9.2-28.4
		c7-7.8,16.9-12.2,27.3-12.2h1308.1c10.5,0,20.4,4.5,27.4,12.3C4639.3,3722.1,4642.6,3732.5,4641.4,3742.9z"/>
</g>
<g id="Layer_1">
	<polygon class="st5" points="4627.2,727.1 3569.9,727.1 3601.8,1021.3 4604.2,1021.3 4538.6,1860.2 3950.8,2046.5 3363,1860.2 
		3328.7,1421.9 3637.3,1421.9 3637.3,1636.9 3959.1,1723.2 4278.9,1636.9 4303.7,1294.3 3318.8,1294.3 3253.4,457.7 4648.2,457.7 	
		"/>
</g>
</svg>
