<svg xmlns="http://www.w3.org/2000/svg" viewBox="0 0 30.85 30.85"><g id="Calque_2" data-name="Calque 2"><g id="Calque_1-2" data-name="Calque 1"><path d="M29.23,0H1.63A2,2,0,0,0,.19,1.07c-.07.16-.13.33-.19.5V29.29a5.72,5.72,0,0,0,.62,1A1.76,1.76,0,0,0,2,30.85H28.69a1.93,1.93,0,0,0,2.16-2.15V2.32A2,2,0,0,0,29.23,0ZM16.91,13.39a5.35,5.35,0,0,1-.6,1.13,5.62,5.62,0,0,1-3.13,2.11A11.23,11.23,0,0,1,9.06,17H8.88v6H5.08V6.22C5.92,6.14,6.76,6,7.6,6,9,6,10.33,5.92,11.69,6a6.4,6.4,0,0,1,3.53,1.13,4.86,4.86,0,0,1,2,4.2A6.25,6.25,0,0,1,17,13l0,.09C17,13.18,17,13.29,16.91,13.39Zm7.69,9.27a8.1,8.1,0,0,1-4.07.58,8.4,8.4,0,0,1-2.82-.69c-.19-.09-.25-.16-.19-.38.22-.82.41-1.63.61-2.46.45.17.86.37,1.3.51a5.46,5.46,0,0,0,2.66.33c.67-.11,1-.49,1-1.07a.85.85,0,0,0-.43-.71,8.92,8.92,0,0,0-1.09-.5,11.09,11.09,0,0,1-2.25-1.08,3.32,3.32,0,0,1-1.44-3.61.88.88,0,0,1,.05-.15s0,0,0,0a0,0,0,0,1,0,0l0-.1a.3.3,0,0,1,0-.1,2.39,2.39,0,0,1,.15-.37,1.71,1.71,0,0,1,.13-.23,1.57,1.57,0,0,1,.2-.3,1,1,0,0,1,.15-.2,2.81,2.81,0,0,1,.29-.31c.1-.1.21-.19.32-.28a5.34,5.34,0,0,1,2.79-1,8.47,8.47,0,0,1,4.23.66L25.6,13.7a15.41,15.41,0,0,0-1.74-.51,6.19,6.19,0,0,0-1.55,0,1.07,1.07,0,0,0-.58.29.78.78,0,0,0,0,1.21,4.07,4.07,0,0,0,.93.53c.72.32,1.46.57,2.16.93a3.4,3.4,0,0,1,1.92,2.54,4,4,0,0,1,.06.68A3.63,3.63,0,0,1,24.6,22.66Z"/><path d="M13.46,11.39a2.56,2.56,0,0,1-2.11,2.54,6.87,6.87,0,0,1-2.48,0V11.62c0-.77,0-1.53,0-2.29,0-.28.05-.41.35-.44a6.91,6.91,0,0,1,2.4,0A2.32,2.32,0,0,1,13.46,11.39Z"/></g></g></svg>